<!DOCTYPE svg PUBLIC "-//W3C//DTD SVG 1.1//EN" "http://www.w3.org/Graphics/SVG/1.1/DTD/svg11.dtd">
<!-- Uploaded to: SVG Repo, www.svgrepo.com, Transformed by: SVG Repo Mixer Tools -->
<svg fill="#9d5132" width="64px" height="64px" viewBox="0 0 32 32" xmlns="http://www.w3.org/2000/svg">
<g id="SVGRepo_bgCarrier" stroke-width="0"/>
<g id="SVGRepo_tracerCarrier" stroke-linecap="round" stroke-linejoin="round"/>
<g id="SVGRepo_iconCarrier"> <title/> <g data-name="Layer 2" id="Layer_2"> <path d="M26,17.66V14a1,1,0,0,0,0-2H24a1,1,0,0,0,0,2v3.66a1.32,1.32,0,0,1-1,1.27V17.59A2.59,2.59,0,0,0,20.41,15H17V11h1.22A3.79,3.79,0,0,0,22,7.22V4.78A3.79,3.79,0,0,0,18.22,1H13.78A3.79,3.79,0,0,0,10,4.78V7.22A3.79,3.79,0,0,0,13.78,11H15v4H11.59A2.59,2.59,0,0,0,9,17.59v1.34a1.32,1.32,0,0,1-1-1.27V14a1,1,0,0,0,0-2H6a1,1,0,0,0,0,2v3.66A3.35,3.35,0,0,0,9.34,21H13v3a1,1,0,0,0,1,1h1v2H13.28A2.28,2.28,0,0,0,11,29.28V30a1,1,0,0,0,2,0v-.72a.29.29,0,0,1,.28-.28H15v1a1,1,0,0,0,2,0V29h1.72a.29.29,0,0,1,.28.28V30a1,1,0,0,0,2,0v-.72A2.28,2.28,0,0,0,18.72,27H17V25h1a1,1,0,0,0,1-1V21h3.66A3.35,3.35,0,0,0,26,17.66ZM12,7.22V4.78A1.78,1.78,0,0,1,13.78,3h4.44A1.78,1.78,0,0,1,20,4.78V7.22A1.78,1.78,0,0,1,18.22,9H13.78A1.78,1.78,0,0,1,12,7.22ZM11,17.59a.6.6,0,0,1,.59-.59h8.82a.6.6,0,0,1,.59.59V19H11ZM17,23H15V21h2Z"/> </g> </g>
</svg>